<?xml version="1.0" encoding="UTF-8" standalone="no"?>
<!DOCTYPE svg PUBLIC "-//W3C//DTD SVG 1.1//EN"
 "http://www.w3.org/Graphics/SVG/1.1/DTD/svg11.dtd">
<!-- Generated by graphviz version 2.40.1 (20161225.0304)
 -->
<!-- Title: g Pages: 1 -->
<svg width="347pt" height="1633pt"
 viewBox="0.00 0.00 347.00 1633.00" xmlns="http://www.w3.org/2000/svg" xmlns:xlink="http://www.w3.org/1999/xlink">
<g id="graph0" class="graph" transform="scale(1 1) rotate(0) translate(4 1629)">
<title>g</title>
<polygon fill="#ffffff" stroke="transparent" points="-4,4 -4,-1629 343,-1629 343,4 -4,4"/>
<!-- Idle -->
<g id="node1" class="node">
<title>Idle</title>
<polygon fill="none" stroke="#000000" points="323.5,-1625 269.5,-1625 269.5,-1589 323.5,-1589 323.5,-1625"/>
<text text-anchor="middle" x="296.5" y="-1603.3" font-family="Times,serif" font-size="14.00" fill="#000000">Idle</text>
</g>
<!-- HS&#45;Advertise(0) -->
<g id="node2" class="node">
<title>HS&#45;Advertise(0)</title>
<polygon fill="none" stroke="#000000" points="302,-1552 191,-1552 191,-1516 302,-1516 302,-1552"/>
<text text-anchor="middle" x="246.5" y="-1530.3" font-family="Times,serif" font-size="14.00" fill="#000000">HS&#45;Advertise(0)</text>
</g>
<!-- Idle&#45;&gt;HS&#45;Advertise(0) -->
<g id="edge1" class="edge">
<title>Idle&#45;&gt;HS&#45;Advertise(0)</title>
<path fill="none" stroke="#000000" d="M284.1404,-1588.9551C278.2509,-1580.3564 271.0913,-1569.9034 264.6039,-1560.4316"/>
<polygon fill="#000000" stroke="#000000" points="267.4292,-1558.3628 258.8907,-1552.0904 261.654,-1562.3185 267.4292,-1558.3628"/>
</g>
<!-- HS&#45;Advertise(1) -->
<g id="node3" class="node">
<title>HS&#45;Advertise(1)</title>
<polygon fill="none" stroke="#000000" points="302,-1479 191,-1479 191,-1443 302,-1443 302,-1479"/>
<text text-anchor="middle" x="246.5" y="-1457.3" font-family="Times,serif" font-size="14.00" fill="#000000">HS&#45;Advertise(1)</text>
</g>
<!-- HS&#45;Advertise(0)&#45;&gt;HS&#45;Advertise(1) -->
<g id="edge2" class="edge">
<title>HS&#45;Advertise(0)&#45;&gt;HS&#45;Advertise(1)</title>
<path fill="none" stroke="#000000" d="M246.5,-1515.9551C246.5,-1507.8828 246.5,-1498.1764 246.5,-1489.1817"/>
<polygon fill="#000000" stroke="#000000" points="250.0001,-1489.0903 246.5,-1479.0904 243.0001,-1489.0904 250.0001,-1489.0903"/>
</g>
<!-- HS&#45;Listen(0) -->
<g id="node4" class="node">
<title>HS&#45;Listen(0)</title>
<polygon fill="none" stroke="#000000" points="292.5,-1406 200.5,-1406 200.5,-1370 292.5,-1370 292.5,-1406"/>
<text text-anchor="middle" x="246.5" y="-1384.3" font-family="Times,serif" font-size="14.00" fill="#000000">HS&#45;Listen(0)</text>
</g>
<!-- HS&#45;Advertise(1)&#45;&gt;HS&#45;Listen(0) -->
<g id="edge3" class="edge">
<title>HS&#45;Advertise(1)&#45;&gt;HS&#45;Listen(0)</title>
<path fill="none" stroke="#000000" d="M246.5,-1442.9551C246.5,-1434.8828 246.5,-1425.1764 246.5,-1416.1817"/>
<polygon fill="#000000" stroke="#000000" points="250.0001,-1416.0903 246.5,-1406.0904 243.0001,-1416.0904 250.0001,-1416.0903"/>
</g>
<!-- HS&#45;Listen(1) -->
<g id="node5" class="node">
<title>HS&#45;Listen(1)</title>
<polygon fill="none" stroke="#000000" points="249.5,-1319 157.5,-1319 157.5,-1283 249.5,-1283 249.5,-1319"/>
<text text-anchor="middle" x="203.5" y="-1297.3" font-family="Times,serif" font-size="14.00" fill="#000000">HS&#45;Listen(1)</text>
</g>
<!-- HS&#45;Listen(0)&#45;&gt;HS&#45;Listen(1) -->
<g id="edge4" class="edge">
<title>HS&#45;Listen(0)&#45;&gt;HS&#45;Listen(1)</title>
<path fill="none" stroke="#000000" d="M237.5904,-1369.9735C231.5942,-1357.8418 223.5808,-1341.6287 216.8299,-1327.9698"/>
<polygon fill="#000000" stroke="#000000" points="219.9668,-1326.4173 212.3982,-1319.0034 213.6915,-1329.519 219.9668,-1326.4173"/>
<text text-anchor="middle" x="231.5" y="-1340.8" font-family="Times,serif" font-size="14.00" fill="#000000">1</text>
</g>
<!-- HS&#45;CheckRx -->
<g id="node6" class="node">
<title>HS&#45;CheckRx</title>
<polygon fill="none" stroke="#000000" points="307.5,-1145 213.5,-1145 213.5,-1109 307.5,-1109 307.5,-1145"/>
<text text-anchor="middle" x="260.5" y="-1123.3" font-family="Times,serif" font-size="14.00" fill="#000000">HS&#45;CheckRx</text>
</g>
<!-- HS&#45;Listen(0)&#45;&gt;HS&#45;CheckRx -->
<g id="edge5" class="edge">
<title>HS&#45;Listen(0)&#45;&gt;HS&#45;CheckRx</title>
<path fill="none" stroke="#000000" d="M250.4642,-1369.9471C253.3063,-1356.0885 256.9036,-1336.436 258.5,-1319 263.8113,-1260.9895 262.8034,-1192.7114 261.6286,-1155.2143"/>
<polygon fill="#000000" stroke="#000000" points="265.1208,-1154.9241 261.2817,-1145.0493 258.1249,-1155.1629 265.1208,-1154.9241"/>
<text text-anchor="middle" x="265.5" y="-1253.8" font-family="Times,serif" font-size="14.00" fill="#000000">0</text>
</g>
<!-- HS&#45;Listen(1)&#45;&gt;HS&#45;CheckRx -->
<g id="edge7" class="edge">
<title>HS&#45;Listen(1)&#45;&gt;HS&#45;CheckRx</title>
<path fill="none" stroke="#000000" d="M209.4923,-1282.7078C219.482,-1252.2127 239.6013,-1190.796 251.366,-1154.8826"/>
<polygon fill="#000000" stroke="#000000" points="254.801,-1155.6398 254.588,-1145.0471 248.1488,-1153.4606 254.801,-1155.6398"/>
<text text-anchor="middle" x="241.5" y="-1210.3" font-family="Times,serif" font-size="14.00" fill="#000000">0</text>
</g>
<!-- HS&#45;Listen(2) -->
<g id="node7" class="node">
<title>HS&#45;Listen(2)</title>
<polygon fill="none" stroke="#000000" points="205.5,-1232 113.5,-1232 113.5,-1196 205.5,-1196 205.5,-1232"/>
<text text-anchor="middle" x="159.5" y="-1210.3" font-family="Times,serif" font-size="14.00" fill="#000000">HS&#45;Listen(2)</text>
</g>
<!-- HS&#45;Listen(1)&#45;&gt;HS&#45;Listen(2) -->
<g id="edge6" class="edge">
<title>HS&#45;Listen(1)&#45;&gt;HS&#45;Listen(2)</title>
<path fill="none" stroke="#000000" d="M194.3832,-1282.9735C188.2476,-1270.8418 180.0478,-1254.6287 173.1399,-1240.9698"/>
<polygon fill="#000000" stroke="#000000" points="176.2416,-1239.3474 168.6051,-1232.0034 169.995,-1242.5066 176.2416,-1239.3474"/>
<text text-anchor="middle" x="187.5" y="-1253.8" font-family="Times,serif" font-size="14.00" fill="#000000">1</text>
</g>
<!-- HS&#45;WaitTx(0) -->
<g id="node10" class="node">
<title>HS&#45;WaitTx(0)</title>
<polygon fill="none" stroke="#000000" points="310.5,-1058 210.5,-1058 210.5,-1022 310.5,-1022 310.5,-1058"/>
<text text-anchor="middle" x="260.5" y="-1036.3" font-family="Times,serif" font-size="14.00" fill="#000000">HS&#45;WaitTx(0)</text>
</g>
<!-- HS&#45;CheckRx&#45;&gt;HS&#45;WaitTx(0) -->
<g id="edge12" class="edge">
<title>HS&#45;CheckRx&#45;&gt;HS&#45;WaitTx(0)</title>
<path fill="none" stroke="#000000" d="M260.5,-1108.9735C260.5,-1097.1918 260.5,-1081.5607 260.5,-1068.1581"/>
<polygon fill="#000000" stroke="#000000" points="264.0001,-1068.0033 260.5,-1058.0034 257.0001,-1068.0034 264.0001,-1068.0033"/>
<text text-anchor="middle" x="264.5" y="-1079.8" font-family="Times,serif" font-size="14.00" fill="#000000">1</text>
</g>
<!-- Error -->
<g id="node13" class="node">
<title>Error</title>
<polygon fill="none" stroke="#000000" points="192.5,-1058 138.5,-1058 138.5,-1022 192.5,-1022 192.5,-1058"/>
<text text-anchor="middle" x="165.5" y="-1036.3" font-family="Times,serif" font-size="14.00" fill="#000000">Error</text>
</g>
<!-- HS&#45;CheckRx&#45;&gt;Error -->
<g id="edge15" class="edge">
<title>HS&#45;CheckRx&#45;&gt;Error</title>
<path fill="none" stroke="#000000" d="M240.8159,-1108.9735C226.9318,-1096.2586 208.152,-1079.0603 192.8188,-1065.0183"/>
<polygon fill="#000000" stroke="#000000" points="194.8974,-1062.1759 185.1588,-1058.0034 190.1698,-1067.3383 194.8974,-1062.1759"/>
<text text-anchor="middle" x="222.5" y="-1079.8" font-family="Times,serif" font-size="14.00" fill="#000000">0</text>
</g>
<!-- HS&#45;Listen(2)&#45;&gt;HS&#45;CheckRx -->
<g id="edge9" class="edge">
<title>HS&#45;Listen(2)&#45;&gt;HS&#45;CheckRx</title>
<path fill="none" stroke="#000000" d="M180.4273,-1195.9735C195.3238,-1183.1419 215.5209,-1165.7443 231.9035,-1151.6326"/>
<polygon fill="#000000" stroke="#000000" points="234.3071,-1154.1817 239.5995,-1145.0034 229.7386,-1148.878 234.3071,-1154.1817"/>
<text text-anchor="middle" x="219.5" y="-1166.8" font-family="Times,serif" font-size="14.00" fill="#000000">0</text>
</g>
<!-- HS&#45;WaitRetry(0) -->
<g id="node8" class="node">
<title>HS&#45;WaitRetry(0)</title>
<polygon fill="none" stroke="#000000" points="195,-1145 80,-1145 80,-1109 195,-1109 195,-1145"/>
<text text-anchor="middle" x="137.5" y="-1123.3" font-family="Times,serif" font-size="14.00" fill="#000000">HS&#45;WaitRetry(0)</text>
</g>
<!-- HS&#45;Listen(2)&#45;&gt;HS&#45;WaitRetry(0) -->
<g id="edge8" class="edge">
<title>HS&#45;Listen(2)&#45;&gt;HS&#45;WaitRetry(0)</title>
<path fill="none" stroke="#000000" d="M154.9416,-1195.9735C151.9328,-1184.0751 147.9312,-1168.2508 144.5199,-1154.7606"/>
<polygon fill="#000000" stroke="#000000" points="147.8974,-1153.8401 142.0526,-1145.0034 141.111,-1155.5563 147.8974,-1153.8401"/>
<text text-anchor="middle" x="153.5" y="-1166.8" font-family="Times,serif" font-size="14.00" fill="#000000">1</text>
</g>
<!-- HS&#45;WaitRetry(1) -->
<g id="node9" class="node">
<title>HS&#45;WaitRetry(1)</title>
<polygon fill="none" stroke="#000000" points="115,-1058 0,-1058 0,-1022 115,-1022 115,-1058"/>
<text text-anchor="middle" x="57.5" y="-1036.3" font-family="Times,serif" font-size="14.00" fill="#000000">HS&#45;WaitRetry(1)</text>
</g>
<!-- HS&#45;WaitRetry(0)&#45;&gt;HS&#45;WaitRetry(1) -->
<g id="edge10" class="edge">
<title>HS&#45;WaitRetry(0)&#45;&gt;HS&#45;WaitRetry(1)</title>
<path fill="none" stroke="#000000" d="M120.9239,-1108.9735C109.3393,-1096.3752 93.7073,-1079.3755 80.8614,-1065.4055"/>
<polygon fill="#000000" stroke="#000000" points="83.3999,-1062.9953 74.0548,-1058.0034 78.2472,-1067.7335 83.3999,-1062.9953"/>
</g>
<!-- HS&#45;WaitRetry(1)&#45;&gt;HS&#45;Advertise(0) -->
<g id="edge11" class="edge">
<title>HS&#45;WaitRetry(1)&#45;&gt;HS&#45;Advertise(0)</title>
<path fill="none" stroke="#000000" d="M55.5021,-1058.3053C53.7567,-1075.8936 51.5,-1103.2301 51.5,-1127 51.5,-1461 51.5,-1461 51.5,-1461 51.5,-1489.2613 124.2472,-1510.2328 180.8753,-1522.2764"/>
<polygon fill="#000000" stroke="#000000" points="180.3798,-1525.7479 190.8818,-1524.3488 181.7994,-1518.8934 180.3798,-1525.7479"/>
</g>
<!-- HS&#45;WaitTx(1) -->
<g id="node11" class="node">
<title>HS&#45;WaitTx(1)</title>
<polygon fill="none" stroke="#000000" points="310.5,-985 210.5,-985 210.5,-949 310.5,-949 310.5,-985"/>
<text text-anchor="middle" x="260.5" y="-963.3" font-family="Times,serif" font-size="14.00" fill="#000000">HS&#45;WaitTx(1)</text>
</g>
<!-- HS&#45;WaitTx(0)&#45;&gt;HS&#45;WaitTx(1) -->
<g id="edge13" class="edge">
<title>HS&#45;WaitTx(0)&#45;&gt;HS&#45;WaitTx(1)</title>
<path fill="none" stroke="#000000" d="M260.5,-1021.9551C260.5,-1013.8828 260.5,-1004.1764 260.5,-995.1817"/>
<polygon fill="#000000" stroke="#000000" points="264.0001,-995.0903 260.5,-985.0904 257.0001,-995.0904 264.0001,-995.0903"/>
</g>
<!-- Preamble(0) -->
<g id="node12" class="node">
<title>Preamble(0)</title>
<polygon fill="none" stroke="#000000" points="308.5,-912 222.5,-912 222.5,-876 308.5,-876 308.5,-912"/>
<text text-anchor="middle" x="265.5" y="-890.3" font-family="Times,serif" font-size="14.00" fill="#000000">Preamble(0)</text>
</g>
<!-- HS&#45;WaitTx(1)&#45;&gt;Preamble(0) -->
<g id="edge14" class="edge">
<title>HS&#45;WaitTx(1)&#45;&gt;Preamble(0)</title>
<path fill="none" stroke="#000000" d="M261.736,-948.9551C262.2888,-940.8828 262.9537,-931.1764 263.5697,-922.1817"/>
<polygon fill="#000000" stroke="#000000" points="267.0693,-922.3062 264.2609,-912.0904 260.0857,-921.8278 267.0693,-922.3062"/>
</g>
<!-- Preamble(1) -->
<g id="node14" class="node">
<title>Preamble(1)</title>
<polygon fill="none" stroke="#000000" points="309.5,-839 223.5,-839 223.5,-803 309.5,-803 309.5,-839"/>
<text text-anchor="middle" x="266.5" y="-817.3" font-family="Times,serif" font-size="14.00" fill="#000000">Preamble(1)</text>
</g>
<!-- Preamble(0)&#45;&gt;Preamble(1) -->
<g id="edge16" class="edge">
<title>Preamble(0)&#45;&gt;Preamble(1)</title>
<path fill="none" stroke="#000000" d="M265.7472,-875.9551C265.8578,-867.8828 265.9907,-858.1764 266.1139,-849.1817"/>
<polygon fill="#000000" stroke="#000000" points="269.6148,-849.1374 266.2522,-839.0904 262.6154,-849.0414 269.6148,-849.1374"/>
</g>
<!-- Preamble(2) -->
<g id="node15" class="node">
<title>Preamble(2)</title>
<polygon fill="none" stroke="#000000" points="310.5,-766 224.5,-766 224.5,-730 310.5,-730 310.5,-766"/>
<text text-anchor="middle" x="267.5" y="-744.3" font-family="Times,serif" font-size="14.00" fill="#000000">Preamble(2)</text>
</g>
<!-- Preamble(1)&#45;&gt;Preamble(2) -->
<g id="edge17" class="edge">
<title>Preamble(1)&#45;&gt;Preamble(2)</title>
<path fill="none" stroke="#000000" d="M266.7472,-802.9551C266.8578,-794.8828 266.9907,-785.1764 267.1139,-776.1817"/>
<polygon fill="#000000" stroke="#000000" points="270.6148,-776.1374 267.2522,-766.0904 263.6154,-776.0414 270.6148,-776.1374"/>
</g>
<!-- Preamble(3) -->
<g id="node16" class="node">
<title>Preamble(3)</title>
<polygon fill="none" stroke="#000000" points="310.5,-693 224.5,-693 224.5,-657 310.5,-657 310.5,-693"/>
<text text-anchor="middle" x="267.5" y="-671.3" font-family="Times,serif" font-size="14.00" fill="#000000">Preamble(3)</text>
</g>
<!-- Preamble(2)&#45;&gt;Preamble(3) -->
<g id="edge18" class="edge">
<title>Preamble(2)&#45;&gt;Preamble(3)</title>
<path fill="none" stroke="#000000" d="M267.5,-729.9551C267.5,-721.8828 267.5,-712.1764 267.5,-703.1817"/>
<polygon fill="#000000" stroke="#000000" points="271.0001,-703.0903 267.5,-693.0904 264.0001,-703.0904 271.0001,-703.0903"/>
</g>
<!-- Preamble(4) -->
<g id="node17" class="node">
<title>Preamble(4)</title>
<polygon fill="none" stroke="#000000" points="310.5,-620 224.5,-620 224.5,-584 310.5,-584 310.5,-620"/>
<text text-anchor="middle" x="267.5" y="-598.3" font-family="Times,serif" font-size="14.00" fill="#000000">Preamble(4)</text>
</g>
<!-- Preamble(3)&#45;&gt;Preamble(4) -->
<g id="edge19" class="edge">
<title>Preamble(3)&#45;&gt;Preamble(4)</title>
<path fill="none" stroke="#000000" d="M267.5,-656.9551C267.5,-648.8828 267.5,-639.1764 267.5,-630.1817"/>
<polygon fill="#000000" stroke="#000000" points="271.0001,-630.0903 267.5,-620.0904 264.0001,-630.0904 271.0001,-630.0903"/>
</g>
<!-- Data(0) -->
<g id="node18" class="node">
<title>Data(0)</title>
<polygon fill="none" stroke="#000000" points="307,-547 248,-547 248,-511 307,-511 307,-547"/>
<text text-anchor="middle" x="277.5" y="-525.3" font-family="Times,serif" font-size="14.00" fill="#000000">Data(0)</text>
</g>
<!-- Preamble(4)&#45;&gt;Data(0) -->
<g id="edge20" class="edge">
<title>Preamble(4)&#45;&gt;Data(0)</title>
<path fill="none" stroke="#000000" d="M269.9719,-583.9551C271.0777,-575.8828 272.4073,-566.1764 273.6395,-557.1817"/>
<polygon fill="#000000" stroke="#000000" points="277.1322,-557.4729 275.0219,-547.0904 270.197,-556.5228 277.1322,-557.4729"/>
</g>
<!-- Data(1) -->
<g id="node19" class="node">
<title>Data(1)</title>
<polygon fill="none" stroke="#000000" points="309,-474 250,-474 250,-438 309,-438 309,-474"/>
<text text-anchor="middle" x="279.5" y="-452.3" font-family="Times,serif" font-size="14.00" fill="#000000">Data(1)</text>
</g>
<!-- Data(0)&#45;&gt;Data(1) -->
<g id="edge21" class="edge">
<title>Data(0)&#45;&gt;Data(1)</title>
<path fill="none" stroke="#000000" d="M277.9944,-510.9551C278.2155,-502.8828 278.4815,-493.1764 278.7279,-484.1817"/>
<polygon fill="#000000" stroke="#000000" points="282.2291,-484.1825 279.0044,-474.0904 275.2317,-483.9907 282.2291,-484.1825"/>
</g>
<!-- Data(2) -->
<g id="node20" class="node">
<title>Data(2)</title>
<polygon fill="none" stroke="#000000" points="310,-401 251,-401 251,-365 310,-365 310,-401"/>
<text text-anchor="middle" x="280.5" y="-379.3" font-family="Times,serif" font-size="14.00" fill="#000000">Data(2)</text>
</g>
<!-- Data(1)&#45;&gt;Data(2) -->
<g id="edge22" class="edge">
<title>Data(1)&#45;&gt;Data(2)</title>
<path fill="none" stroke="#000000" d="M279.7472,-437.9551C279.8578,-429.8828 279.9907,-420.1764 280.1139,-411.1817"/>
<polygon fill="#000000" stroke="#000000" points="283.6148,-411.1374 280.2522,-401.0904 276.6154,-411.0414 283.6148,-411.1374"/>
</g>
<!-- Data(3) -->
<g id="node21" class="node">
<title>Data(3)</title>
<polygon fill="none" stroke="#000000" points="310,-328 251,-328 251,-292 310,-292 310,-328"/>
<text text-anchor="middle" x="280.5" y="-306.3" font-family="Times,serif" font-size="14.00" fill="#000000">Data(3)</text>
</g>
<!-- Data(2)&#45;&gt;Data(3) -->
<g id="edge23" class="edge">
<title>Data(2)&#45;&gt;Data(3)</title>
<path fill="none" stroke="#000000" d="M280.5,-364.9551C280.5,-356.8828 280.5,-347.1764 280.5,-338.1817"/>
<polygon fill="#000000" stroke="#000000" points="284.0001,-338.0903 280.5,-328.0904 277.0001,-338.0904 284.0001,-338.0903"/>
</g>
<!-- Data(4) -->
<g id="node22" class="node">
<title>Data(4)</title>
<polygon fill="none" stroke="#000000" points="310,-255 251,-255 251,-219 310,-219 310,-255"/>
<text text-anchor="middle" x="280.5" y="-233.3" font-family="Times,serif" font-size="14.00" fill="#000000">Data(4)</text>
</g>
<!-- Data(3)&#45;&gt;Data(4) -->
<g id="edge24" class="edge">
<title>Data(3)&#45;&gt;Data(4)</title>
<path fill="none" stroke="#000000" d="M280.5,-291.9551C280.5,-283.8828 280.5,-274.1764 280.5,-265.1817"/>
<polygon fill="#000000" stroke="#000000" points="284.0001,-265.0903 280.5,-255.0904 277.0001,-265.0904 284.0001,-265.0903"/>
</g>
<!-- Data(5) -->
<g id="node23" class="node">
<title>Data(5)</title>
<polygon fill="none" stroke="#000000" points="310,-182 251,-182 251,-146 310,-146 310,-182"/>
<text text-anchor="middle" x="280.5" y="-160.3" font-family="Times,serif" font-size="14.00" fill="#000000">Data(5)</text>
</g>
<!-- Data(4)&#45;&gt;Data(5) -->
<g id="edge25" class="edge">
<title>Data(4)&#45;&gt;Data(5)</title>
<path fill="none" stroke="#000000" d="M280.5,-218.9551C280.5,-210.8828 280.5,-201.1764 280.5,-192.1817"/>
<polygon fill="#000000" stroke="#000000" points="284.0001,-192.0903 280.5,-182.0904 277.0001,-192.0904 284.0001,-192.0903"/>
</g>
<!-- Data(6) -->
<g id="node24" class="node">
<title>Data(6)</title>
<polygon fill="none" stroke="#000000" points="310,-109 251,-109 251,-73 310,-73 310,-109"/>
<text text-anchor="middle" x="280.5" y="-87.3" font-family="Times,serif" font-size="14.00" fill="#000000">Data(6)</text>
</g>
<!-- Data(5)&#45;&gt;Data(6) -->
<g id="edge26" class="edge">
<title>Data(5)&#45;&gt;Data(6)</title>
<path fill="none" stroke="#000000" d="M280.5,-145.9551C280.5,-137.8828 280.5,-128.1764 280.5,-119.1817"/>
<polygon fill="#000000" stroke="#000000" points="284.0001,-119.0903 280.5,-109.0904 277.0001,-119.0904 284.0001,-119.0903"/>
</g>
<!-- Data(7) -->
<g id="node25" class="node">
<title>Data(7)</title>
<polygon fill="none" stroke="#000000" points="339,-36 280,-36 280,0 339,0 339,-36"/>
<text text-anchor="middle" x="309.5" y="-14.3" font-family="Times,serif" font-size="14.00" fill="#000000">Data(7)</text>
</g>
<!-- Data(6)&#45;&gt;Data(7) -->
<g id="edge27" class="edge">
<title>Data(6)&#45;&gt;Data(7)</title>
<path fill="none" stroke="#000000" d="M287.6685,-72.9551C290.945,-64.7074 294.8993,-54.7536 298.5371,-45.5962"/>
<polygon fill="#000000" stroke="#000000" points="301.8741,-46.6761 302.3134,-36.0904 295.3687,-44.0917 301.8741,-46.6761"/>
</g>
<!-- Data(7)&#45;&gt;Idle -->
<g id="edge28" class="edge">
<title>Data(7)&#45;&gt;Idle</title>
<path fill="none" stroke="#000000" d="M321.1283,-36.1187C329.1963,-50.4329 338.5,-71.2263 338.5,-91 338.5,-1534 338.5,-1534 338.5,-1534 338.5,-1551.0318 329.8043,-1567.678 320.3263,-1580.7633"/>
<polygon fill="#000000" stroke="#000000" points="317.4408,-1578.7725 314.0684,-1588.8162 322.9681,-1583.0677 317.4408,-1578.7725"/>
</g>
</g>
</svg>
