<?xml version="1.0" encoding="UTF-8" standalone="no"?><svg xmlns="http://www.w3.org/2000/svg" xmlns:xlink="http://www.w3.org/1999/xlink" contentScriptType="application/ecmascript" contentStyleType="text/css" height="232px" preserveAspectRatio="none" style="width:1383px;height:232px;" version="1.1" viewBox="0 0 1383 232" width="1383px" zoomAndPan="magnify"><defs/><g><line style="stroke: #000000; stroke-width: 1.7;" x1="10" x2="10" y1="10" y2="201.8125"/><line style="stroke: #000000; stroke-width: 1.7;" x1="1366" x2="1366" y1="10" y2="201.8125"/><text fill="#000000" font-family="sans-serif" font-size="12" lengthAdjust="spacingAndGlyphs" textLength="41" x="15" y="21.1387">Status</text><line style="stroke: #000000; stroke-width: 1.0;" x1="10" x2="57" y1="24.9688" y2="24.9688"/><line style="stroke: #000000; stroke-width: 1.0;" x1="57" x2="67" y1="24.9688" y2="10"/><polygon fill="#D7E0F2" points="15,31.9375,99,31.9375,111,43.9375,99,55.9375,15,55.9375" style="stroke: #D7E0F2; stroke-width: 1.5;"/><path d="M15,31.9375 L99,31.9375 L111,43.9375 L99,55.9375 L15,55.9375 " fill="#D7E0F2" style="stroke: #038048; stroke-width: 1.5;"/><polygon fill="#D7E0F2" points="123,31.9375,349,31.9375,361,43.9375,349,55.9375,123,55.9375,111,43.9375" style="stroke: #038048; stroke-width: 1.5;"/><polygon fill="#D7E0F2" points="373,31.9375,549,31.9375,561,43.9375,549,55.9375,373,55.9375,361,43.9375" style="stroke: #038048; stroke-width: 1.5;"/><polygon fill="#D7E0F2" points="573,31.9375,649,31.9375,661,43.9375,649,55.9375,573,55.9375,561,43.9375" style="stroke: #038048; stroke-width: 1.5;"/><polygon fill="#D7E0F2" points="673,31.9375,899,31.9375,911,43.9375,899,55.9375,673,55.9375,661,43.9375" style="stroke: #038048; stroke-width: 1.5;"/><polygon fill="#D7E0F2" points="923,31.9375,1299,31.9375,1311,43.9375,1299,55.9375,923,55.9375,911,43.9375" style="stroke: #038048; stroke-width: 1.5;"/><polygon fill="#D7E0F2" points="1323,31.9375,1361,31.9375,1361,55.9375,1323,55.9375,1311,43.9375" style="stroke: #D7E0F2; stroke-width: 1.5;"/><path d="M1361,31.9375 L1323,31.9375 L1311,43.9375 L1323,55.9375 L1361,55.9375 " fill="#D7E0F2" style="stroke: #038048; stroke-width: 1.5;"/><text fill="#000000" font-family="sans-serif" font-size="12" lengthAdjust="spacingAndGlyphs" textLength="22" x="27" y="48.0918">Idle</text><text fill="#000000" font-family="sans-serif" font-size="12" lengthAdjust="spacingAndGlyphs" textLength="165" x="153.5" y="48.0918">Failing handshake (no RX)</text><text fill="#000000" font-family="sans-serif" font-size="12" lengthAdjust="spacingAndGlyphs" textLength="71" x="425.5" y="48.0918">Handshake</text><text fill="#000000" font-family="sans-serif" font-size="12" lengthAdjust="spacingAndGlyphs" textLength="130" x="546" y="48.0918">Waiting for Preamble</text><text fill="#000000" font-family="sans-serif" font-size="12" lengthAdjust="spacingAndGlyphs" textLength="59" x="756.5" y="48.0918">Preamble</text><text fill="#000000" font-family="sans-serif" font-size="12" lengthAdjust="spacingAndGlyphs" textLength="56" x="1083" y="48.0918">Message</text><text fill="#000000" font-family="sans-serif" font-size="12" lengthAdjust="spacingAndGlyphs" textLength="22" x="1323" y="48.0918">Idle</text><line style="stroke: #000000; stroke-width: 1.7;" x1="10" x2="1366" y1="10" y2="10"/><text fill="#000000" font-family="sans-serif" font-size="12" lengthAdjust="spacingAndGlyphs" textLength="72" x="15" y="85.0762">Transmitter</text><line style="stroke: #000000; stroke-width: 1.0;" x1="10" x2="88" y1="88.9063" y2="88.9063"/><line style="stroke: #000000; stroke-width: 1.0;" x1="88" x2="98" y1="88.9063" y2="73.9375"/><polygon fill="#D7E0F2" points="29,95.875,99,95.875,111,107.875,99,119.875,29,119.875" style="stroke: #D7E0F2; stroke-width: 1.5;"/><path d="M29,95.875 L99,95.875 L111,107.875 L99,119.875 L29,119.875 " fill="#D7E0F2" style="stroke: #038048; stroke-width: 1.5;"/><polygon fill="#D7E0F2" points="123,95.875,199,95.875,211,107.875,199,119.875,123,119.875,111,107.875" style="stroke: #038048; stroke-width: 1.5;"/><polygon fill="#D7E0F2" points="223,95.875,349,95.875,361,107.875,349,119.875,223,119.875,211,107.875" style="stroke: #038048; stroke-width: 1.5;"/><polygon fill="#D7E0F2" points="373,95.875,449,95.875,461,107.875,449,119.875,373,119.875,361,107.875" style="stroke: #038048; stroke-width: 1.5;"/><polygon fill="#D7E0F2" points="473,95.875,649,95.875,661,107.875,649,119.875,473,119.875,461,107.875" style="stroke: #038048; stroke-width: 1.5;"/><polygon fill="#D7E0F2" points="673,95.875,699,95.875,711,107.875,699,119.875,673,119.875,661,107.875" style="stroke: #038048; stroke-width: 1.5;"/><polygon fill="#D7E0F2" points="723,95.875,749,95.875,761,107.875,749,119.875,723,119.875,711,107.875" style="stroke: #038048; stroke-width: 1.5;"/><polygon fill="#D7E0F2" points="773,95.875,799,95.875,811,107.875,799,119.875,773,119.875,761,107.875" style="stroke: #038048; stroke-width: 1.5;"/><polygon fill="#D7E0F2" points="823,95.875,849,95.875,861,107.875,849,119.875,823,119.875,811,107.875" style="stroke: #038048; stroke-width: 1.5;"/><polygon fill="#D7E0F2" points="873,95.875,899,95.875,911,107.875,899,119.875,873,119.875,861,107.875" style="stroke: #038048; stroke-width: 1.5;"/><polygon fill="#D7E0F2" points="923,95.875,949,95.875,961,107.875,949,119.875,923,119.875,911,107.875" style="stroke: #038048; stroke-width: 1.5;"/><polygon fill="#D7E0F2" points="973,95.875,999,95.875,1011,107.875,999,119.875,973,119.875,961,107.875" style="stroke: #038048; stroke-width: 1.5;"/><polygon fill="#D7E0F2" points="1023,95.875,1049,95.875,1061,107.875,1049,119.875,1023,119.875,1011,107.875" style="stroke: #038048; stroke-width: 1.5;"/><polygon fill="#D7E0F2" points="1073,95.875,1099,95.875,1111,107.875,1099,119.875,1073,119.875,1061,107.875" style="stroke: #038048; stroke-width: 1.5;"/><polygon fill="#D7E0F2" points="1123,95.875,1149,95.875,1161,107.875,1149,119.875,1123,119.875,1111,107.875" style="stroke: #038048; stroke-width: 1.5;"/><polygon fill="#D7E0F2" points="1173,95.875,1199,95.875,1211,107.875,1199,119.875,1173,119.875,1161,107.875" style="stroke: #038048; stroke-width: 1.5;"/><polygon fill="#D7E0F2" points="1223,95.875,1249,95.875,1261,107.875,1249,119.875,1223,119.875,1211,107.875" style="stroke: #038048; stroke-width: 1.5;"/><polygon fill="#D7E0F2" points="1273,95.875,1299,95.875,1311,107.875,1299,119.875,1273,119.875,1261,107.875" style="stroke: #038048; stroke-width: 1.5;"/><polygon fill="#D7E0F2" points="1323,95.875,1361,95.875,1361,119.875,1323,119.875,1311,107.875" style="stroke: #D7E0F2; stroke-width: 1.5;"/><path d="M1361,95.875 L1323,95.875 L1311,107.875 L1323,119.875 L1361,119.875 " fill="#D7E0F2" style="stroke: #038048; stroke-width: 1.5;"/><text fill="#000000" font-family="sans-serif" font-size="12" lengthAdjust="spacingAndGlyphs" textLength="8" x="41" y="112.0293">1</text><text fill="#000000" font-family="sans-serif" font-size="12" lengthAdjust="spacingAndGlyphs" textLength="8" x="157" y="112.0293">0</text><text fill="#000000" font-family="sans-serif" font-size="12" lengthAdjust="spacingAndGlyphs" textLength="8" x="282" y="112.0293">1</text><text fill="#000000" font-family="sans-serif" font-size="12" lengthAdjust="spacingAndGlyphs" textLength="8" x="407" y="112.0293">0</text><text fill="#000000" font-family="sans-serif" font-size="12" lengthAdjust="spacingAndGlyphs" textLength="8" x="557" y="112.0293">1</text><text fill="#000000" font-family="sans-serif" font-size="12" lengthAdjust="spacingAndGlyphs" textLength="8" x="682" y="112.0293">1</text><text fill="#000000" font-family="sans-serif" font-size="12" lengthAdjust="spacingAndGlyphs" textLength="8" x="732" y="112.0293">0</text><text fill="#000000" font-family="sans-serif" font-size="12" lengthAdjust="spacingAndGlyphs" textLength="8" x="782" y="112.0293">1</text><text fill="#000000" font-family="sans-serif" font-size="12" lengthAdjust="spacingAndGlyphs" textLength="8" x="832" y="112.0293">0</text><text fill="#000000" font-family="sans-serif" font-size="12" lengthAdjust="spacingAndGlyphs" textLength="8" x="882" y="112.0293">1</text><text fill="#000000" font-family="sans-serif" font-size="12" lengthAdjust="spacingAndGlyphs" textLength="28" x="922" y="112.0293">M[0]</text><text fill="#000000" font-family="sans-serif" font-size="12" lengthAdjust="spacingAndGlyphs" textLength="28" x="972" y="112.0293">M[1]</text><text fill="#000000" font-family="sans-serif" font-size="12" lengthAdjust="spacingAndGlyphs" textLength="28" x="1022" y="112.0293">M[2]</text><text fill="#000000" font-family="sans-serif" font-size="12" lengthAdjust="spacingAndGlyphs" textLength="28" x="1072" y="112.0293">M[3]</text><text fill="#000000" font-family="sans-serif" font-size="12" lengthAdjust="spacingAndGlyphs" textLength="28" x="1122" y="112.0293">M[4]</text><text fill="#000000" font-family="sans-serif" font-size="12" lengthAdjust="spacingAndGlyphs" textLength="28" x="1172" y="112.0293">M[5]</text><text fill="#000000" font-family="sans-serif" font-size="12" lengthAdjust="spacingAndGlyphs" textLength="28" x="1222" y="112.0293">M[6]</text><text fill="#000000" font-family="sans-serif" font-size="12" lengthAdjust="spacingAndGlyphs" textLength="28" x="1272" y="112.0293">M[7]</text><text fill="#000000" font-family="sans-serif" font-size="12" lengthAdjust="spacingAndGlyphs" textLength="8" x="1323" y="112.0293">1</text><line style="stroke: #000000; stroke-width: 1.7;" x1="10" x2="1366" y1="73.9375" y2="73.9375"/><text fill="#000000" font-family="sans-serif" font-size="12" lengthAdjust="spacingAndGlyphs" textLength="53" x="15" y="149.0137">Receiver</text><line style="stroke: #000000; stroke-width: 1.0;" x1="10" x2="69" y1="152.8438" y2="152.8438"/><line style="stroke: #000000; stroke-width: 1.0;" x1="69" x2="79" y1="152.8438" y2="137.875"/><polygon fill="#D7E0F2" points="29,159.8125,499,159.8125,511,171.8125,499,183.8125,29,183.8125" style="stroke: #D7E0F2; stroke-width: 1.5;"/><path d="M29,159.8125 L499,159.8125 L511,171.8125 L499,183.8125 L29,183.8125 " fill="#D7E0F2" style="stroke: #038048; stroke-width: 1.5;"/><polygon fill="#D7E0F2" points="523,159.8125,549,159.8125,561,171.8125,549,183.8125,523,183.8125,511,171.8125" style="stroke: #038048; stroke-width: 1.5;"/><polygon fill="#D7E0F2" points="573,159.8125,1361,159.8125,1361,183.8125,573,183.8125,561,171.8125" style="stroke: #D7E0F2; stroke-width: 1.5;"/><path d="M1361,159.8125 L573,159.8125 L561,171.8125 L573,183.8125 L1361,183.8125 " fill="#D7E0F2" style="stroke: #038048; stroke-width: 1.5;"/><text fill="#000000" font-family="sans-serif" font-size="12" lengthAdjust="spacingAndGlyphs" textLength="8" x="41" y="175.9668">1</text><text fill="#000000" font-family="sans-serif" font-size="12" lengthAdjust="spacingAndGlyphs" textLength="8" x="532" y="175.9668">0</text><text fill="#000000" font-family="sans-serif" font-size="12" lengthAdjust="spacingAndGlyphs" textLength="8" x="573" y="175.9668">1</text><line style="stroke: #000000; stroke-width: 1.7;" x1="10" x2="1366" y1="137.875" y2="137.875"/><line style="stroke: #000000; stroke-width: 2.0;" x1="61" x2="61" y1="201.8125" y2="206.8125"/><line style="stroke: #000000; stroke-width: 2.0;" x1="111" x2="111" y1="201.8125" y2="206.8125"/><line style="stroke: #000000; stroke-width: 2.0;" x1="161" x2="161" y1="201.8125" y2="206.8125"/><line style="stroke: #000000; stroke-width: 2.0;" x1="211" x2="211" y1="201.8125" y2="206.8125"/><line style="stroke: #000000; stroke-width: 2.0;" x1="261" x2="261" y1="201.8125" y2="206.8125"/><line style="stroke: #000000; stroke-width: 2.0;" x1="311" x2="311" y1="201.8125" y2="206.8125"/><line style="stroke: #000000; stroke-width: 2.0;" x1="361" x2="361" y1="201.8125" y2="206.8125"/><line style="stroke: #000000; stroke-width: 2.0;" x1="411" x2="411" y1="201.8125" y2="206.8125"/><line style="stroke: #000000; stroke-width: 2.0;" x1="461" x2="461" y1="201.8125" y2="206.8125"/><line style="stroke: #000000; stroke-width: 2.0;" x1="511" x2="511" y1="201.8125" y2="206.8125"/><line style="stroke: #000000; stroke-width: 2.0;" x1="561" x2="561" y1="201.8125" y2="206.8125"/><line style="stroke: #000000; stroke-width: 2.0;" x1="611" x2="611" y1="201.8125" y2="206.8125"/><line style="stroke: #000000; stroke-width: 2.0;" x1="661" x2="661" y1="201.8125" y2="206.8125"/><line style="stroke: #000000; stroke-width: 2.0;" x1="711" x2="711" y1="201.8125" y2="206.8125"/><line style="stroke: #000000; stroke-width: 2.0;" x1="761" x2="761" y1="201.8125" y2="206.8125"/><line style="stroke: #000000; stroke-width: 2.0;" x1="811" x2="811" y1="201.8125" y2="206.8125"/><line style="stroke: #000000; stroke-width: 2.0;" x1="861" x2="861" y1="201.8125" y2="206.8125"/><line style="stroke: #000000; stroke-width: 2.0;" x1="911" x2="911" y1="201.8125" y2="206.8125"/><line style="stroke: #000000; stroke-width: 2.0;" x1="961" x2="961" y1="201.8125" y2="206.8125"/><line style="stroke: #000000; stroke-width: 2.0;" x1="1011" x2="1011" y1="201.8125" y2="206.8125"/><line style="stroke: #000000; stroke-width: 2.0;" x1="1061" x2="1061" y1="201.8125" y2="206.8125"/><line style="stroke: #000000; stroke-width: 2.0;" x1="1111" x2="1111" y1="201.8125" y2="206.8125"/><line style="stroke: #000000; stroke-width: 2.0;" x1="1161" x2="1161" y1="201.8125" y2="206.8125"/><line style="stroke: #000000; stroke-width: 2.0;" x1="1211" x2="1211" y1="201.8125" y2="206.8125"/><line style="stroke: #000000; stroke-width: 2.0;" x1="1261" x2="1261" y1="201.8125" y2="206.8125"/><line style="stroke: #000000; stroke-width: 2.0;" x1="1311" x2="1311" y1="201.8125" y2="206.8125"/><line style="stroke: #000000; stroke-width: 2.0;" x1="1361" x2="1361" y1="201.8125" y2="206.8125"/><line style="stroke: #000000; stroke-width: 2.0;" x1="61" x2="1361" y1="201.8125" y2="201.8125"/><text fill="#000000" font-family="sans-serif" font-size="12" lengthAdjust="spacingAndGlyphs" textLength="8" x="57" y="218.9512">0</text><text fill="#000000" font-family="sans-serif" font-size="12" lengthAdjust="spacingAndGlyphs" textLength="8" x="107" y="218.9512">1</text><text fill="#000000" font-family="sans-serif" font-size="12" lengthAdjust="spacingAndGlyphs" textLength="8" x="207" y="218.9512">3</text><text fill="#000000" font-family="sans-serif" font-size="12" lengthAdjust="spacingAndGlyphs" textLength="8" x="357" y="218.9512">6</text><text fill="#000000" font-family="sans-serif" font-size="12" lengthAdjust="spacingAndGlyphs" textLength="8" x="457" y="218.9512">8</text><text fill="#000000" font-family="sans-serif" font-size="12" lengthAdjust="spacingAndGlyphs" textLength="8" x="507" y="218.9512">9</text><text fill="#000000" font-family="sans-serif" font-size="12" lengthAdjust="spacingAndGlyphs" textLength="16" x="553" y="218.9512">10</text><text fill="#000000" font-family="sans-serif" font-size="12" lengthAdjust="spacingAndGlyphs" textLength="16" x="653" y="218.9512">12</text><text fill="#000000" font-family="sans-serif" font-size="12" lengthAdjust="spacingAndGlyphs" textLength="16" x="703" y="218.9512">13</text><text fill="#000000" font-family="sans-serif" font-size="12" lengthAdjust="spacingAndGlyphs" textLength="16" x="753" y="218.9512">14</text><text fill="#000000" font-family="sans-serif" font-size="12" lengthAdjust="spacingAndGlyphs" textLength="16" x="803" y="218.9512">15</text><text fill="#000000" font-family="sans-serif" font-size="12" lengthAdjust="spacingAndGlyphs" textLength="16" x="853" y="218.9512">16</text><text fill="#000000" font-family="sans-serif" font-size="12" lengthAdjust="spacingAndGlyphs" textLength="16" x="903" y="218.9512">17</text><text fill="#000000" font-family="sans-serif" font-size="12" lengthAdjust="spacingAndGlyphs" textLength="16" x="953" y="218.9512">18</text><text fill="#000000" font-family="sans-serif" font-size="12" lengthAdjust="spacingAndGlyphs" textLength="16" x="1003" y="218.9512">19</text><text fill="#000000" font-family="sans-serif" font-size="12" lengthAdjust="spacingAndGlyphs" textLength="16" x="1053" y="218.9512">20</text><text fill="#000000" font-family="sans-serif" font-size="12" lengthAdjust="spacingAndGlyphs" textLength="16" x="1103" y="218.9512">21</text><text fill="#000000" font-family="sans-serif" font-size="12" lengthAdjust="spacingAndGlyphs" textLength="16" x="1153" y="218.9512">22</text><text fill="#000000" font-family="sans-serif" font-size="12" lengthAdjust="spacingAndGlyphs" textLength="16" x="1203" y="218.9512">23</text><text fill="#000000" font-family="sans-serif" font-size="12" lengthAdjust="spacingAndGlyphs" textLength="16" x="1253" y="218.9512">24</text><text fill="#000000" font-family="sans-serif" font-size="12" lengthAdjust="spacingAndGlyphs" textLength="16" x="1303" y="218.9512">25</text><!--
@startuml
concise "Status" as Status
concise "Transmitter" as TX
concise "Receiver" as RX

Status is Idle
TX is 1
RX is 1

@0

@+1
Status is "Failing handshake (no RX)"
TX is 0

@+2
TX is 1

@+3
Status is Handshake
TX is 0

@+2
TX is 1

@+1
RX is 0

@+1
Status is "Waiting for Preamble"
RX is 1

@+2
Status is Preamble
TX is 1

@+1
TX is 0

@+1
TX is 1

@+1
TX is 0

@+1
TX is 1

@+1
Status is Message
TX is "M[0]"
@+1
TX is "M[1]"
@+1
TX is "M[2]"
@+1
TX is "M[3]"
@+1
TX is "M[4]"
@+1
TX is "M[5]"
@+1
TX is "M[6]"
@+1
TX is "M[7]"

@+1
Status is Idle
TX is 1
@enduml

PlantUML version 1.2018.03(Thu Apr 05 18:59:15 CEST 2018)
(GPL source distribution)
Java Runtime: OpenJDK Runtime Environment
JVM: OpenJDK 64-Bit Server VM
Java Version: 1.8.0_172-b11
Operating System: Linux
OS Version: 4.16.8-1-ARCH
Default Encoding: UTF-8
Language: en
Country: US
--></g></svg>